<svg xmlns="http://www.w3.org/2000/svg" viewBox="-130 -30 831 831" fill="currentColor">
  <path d="M 544 120 C 544 10 430 0 383 0 C 254 0 152 75 152 179 C 152 326 357 387 357 558 C 357 642 308 691 241 691 C 177 691 145 645 145 595 C 145 526 208 501 262 501 C 259 449 209 435 174 435 C 104 435 27 491 27 599 C 27 721 125 771 239 771 C 384 771 520 689 520 521 C 520 305 295 285 295 138 C 295 78 332 47 387 47 C 442 47 461 79 461 114 C 461 147 443 184 416 200 C 429 215 444 221 462 221 C 512 221 544 178 544 120 Z"/>
</svg>
